<?xml version="1.0" encoding="utf-8"?>
<!-- Generator: Adobe Illustrator 17.0.0, SVG Export Plug-In . SVG Version: 6.00 Build 0)  -->
<!DOCTYPE svg PUBLIC "-//W3C//DTD SVG 1.1//EN" "http://www.w3.org/Graphics/SVG/1.1/DTD/svg11.dtd">
<svg version="1.1" id="Layer_1" xmlns="http://www.w3.org/2000/svg" xmlns:xlink="http://www.w3.org/1999/xlink" x="0px" y="0px"
	 width="100px" height="50px" viewBox="0 0 100 50" enable-background="new 0 0 100 50" xml:space="preserve">
<g>
	<g>
		<g>
			<path fill="#FFFFFF" d="M30.197,25.958c-0.018-0.053-0.042-0.089-0.073-0.106c-0.03-0.017-0.072-0.02-0.125-0.01
				c-0.053,0.011-0.096,0.031-0.125,0.06c-0.03,0.029-0.055,0.075-0.073,0.135c-0.02,0.069-0.034,0.157-0.041,0.263
				c-0.007,0.109-0.011,0.243-0.011,0.4s0.004,0.29,0.011,0.397c0.007,0.103,0.021,0.186,0.041,0.246
				c0.018,0.052,0.042,0.088,0.073,0.105c0.03,0.017,0.072,0.02,0.125,0.01c0.053-0.011,0.095-0.031,0.125-0.06
				s0.055-0.075,0.073-0.134c0.02-0.067,0.034-0.156,0.041-0.262c0.007-0.111,0.011-0.246,0.011-0.401
				c0-0.156-0.004-0.289-0.011-0.395C30.231,26.102,30.217,26.019,30.197,25.958z"/>
			<path fill="#FFFFFF" d="M24.15,27.166c-0.018-0.053-0.042-0.089-0.073-0.106c-0.03-0.017-0.072-0.02-0.125-0.01
				c-0.053,0.011-0.096,0.031-0.125,0.06c-0.03,0.029-0.055,0.075-0.073,0.135c-0.02,0.069-0.034,0.157-0.041,0.263
				c-0.007,0.109-0.011,0.243-0.011,0.4s0.004,0.29,0.011,0.397c0.007,0.103,0.021,0.186,0.041,0.246
				c0.018,0.052,0.042,0.088,0.073,0.105c0.03,0.017,0.072,0.02,0.125,0.01c0.053-0.011,0.095-0.031,0.125-0.06
				s0.055-0.075,0.073-0.134c0.02-0.067,0.034-0.156,0.041-0.262c0.007-0.111,0.011-0.246,0.011-0.401
				c0-0.156-0.004-0.289-0.011-0.395C24.185,27.31,24.171,27.227,24.15,27.166z"/>
			<polygon fill="#FFFFFF" points="19.467,28.978 19.754,28.921 19.61,28.256 			"/>
			<path fill="#FFFFFF" d="M21.322,27.622l-0.152,0.03V28.2l0.127-0.025c0.094-0.019,0.165-0.055,0.212-0.107
				c0.045-0.049,0.067-0.129,0.067-0.236C21.575,27.652,21.497,27.587,21.322,27.622z"/>
			<path fill="#FFFFFF" d="M28.186,26.25l-0.152,0.03v0.547l0.127-0.025c0.094-0.019,0.165-0.055,0.212-0.107
				c0.045-0.049,0.067-0.129,0.067-0.236C28.44,26.28,28.362,26.215,28.186,26.25z"/>
			<path fill="#FFFFFF" d="M26.613,27.569c-0.023-0.016-0.05-0.025-0.083-0.027c-0.037-0.002-0.079,0.001-0.124,0.01l-0.133,0.027
				v0.577l0.114-0.023c0.096-0.019,0.173-0.056,0.229-0.109c0.05-0.047,0.075-0.128,0.075-0.242c0-0.059-0.007-0.106-0.022-0.14
				C26.654,27.61,26.635,27.585,26.613,27.569z"/>
			<path fill="#FFFFFF" d="M14.32,10.5v29h21.232v-29H14.32z M16.477,12.463h5.838l-0.027-0.123l0.492-0.109l-0.087-0.391
				l0.492-0.109l0.492-0.109l0.492-0.109l0.087,0.391l0.492-0.109l0.087,0.391l0.061,0.277h8.498v11.134l-16.917,3.28
				C16.477,26.877,16.477,12.463,16.477,12.463z M33.178,26.611v0.066v0.514v0.066l-0.063,0.013l-0.418,0.084l-0.063,0.013V27.3
				v-0.514V26.72l0.063-0.013l0.418-0.084L33.178,26.611z M31.481,27.002c0.006,0.033,0.018,0.06,0.035,0.079
				c0.017,0.019,0.039,0.032,0.069,0.039c0.031,0.008,0.072,0.007,0.122-0.003c0.055-0.011,0.104-0.039,0.149-0.086
				c0.041-0.043,0.061-0.101,0.061-0.18c0-0.045-0.006-0.082-0.017-0.11c-0.01-0.027-0.027-0.049-0.052-0.068
				c-0.027-0.021-0.063-0.038-0.109-0.051c-0.05-0.014-0.112-0.027-0.185-0.038c-0.104-0.015-0.196-0.037-0.273-0.065
				c-0.08-0.029-0.148-0.069-0.202-0.12c-0.056-0.052-0.097-0.117-0.123-0.194c-0.025-0.075-0.038-0.165-0.038-0.268
				c0-0.252,0.07-0.457,0.208-0.612c0.136-0.152,0.323-0.252,0.555-0.299c0.106-0.021,0.206-0.029,0.296-0.022
				c0.094,0.007,0.176,0.032,0.245,0.075c0.07,0.044,0.125,0.108,0.164,0.189c0.038,0.081,0.058,0.183,0.058,0.304v0.066v0.066
				l-0.063,0.013l-0.437,0.087l-0.063,0.013v-0.066c0-0.098-0.016-0.17-0.047-0.213c-0.016-0.023-0.049-0.051-0.137-0.033
				c-0.042,0.008-0.076,0.021-0.101,0.038c-0.024,0.016-0.044,0.034-0.057,0.054c-0.014,0.02-0.023,0.042-0.028,0.066
				c-0.006,0.029-0.009,0.059-0.009,0.089c0,0.06,0.012,0.107,0.035,0.141c0.015,0.023,0.056,0.055,0.161,0.079l0.352,0.088
				c0.091,0.023,0.166,0.052,0.225,0.086c0.06,0.035,0.109,0.077,0.146,0.125c0.037,0.049,0.063,0.106,0.078,0.171
				c0.014,0.061,0.021,0.131,0.021,0.208c0,0.268-0.078,0.484-0.232,0.64c-0.149,0.152-0.357,0.255-0.618,0.307
				c-0.274,0.055-0.475,0.03-0.598-0.075c-0.123-0.104-0.185-0.276-0.185-0.51v-0.096V26.85l0.063-0.013l0.456-0.091l0.063-0.013
				v0.066v0.069C31.469,26.917,31.473,26.963,31.481,27.002z M30.832,26.483c0,0.182-0.008,0.352-0.024,0.506
				c-0.017,0.16-0.054,0.305-0.111,0.431c-0.06,0.131-0.147,0.241-0.259,0.326c-0.11,0.084-0.258,0.145-0.439,0.181
				s-0.329,0.034-0.439-0.006c-0.112-0.041-0.199-0.116-0.259-0.223c-0.057-0.103-0.095-0.233-0.111-0.387
				c-0.016-0.148-0.024-0.315-0.024-0.497c0-0.179,0.008-0.349,0.024-0.505c0.017-0.161,0.054-0.307,0.111-0.433
				c0.059-0.13,0.146-0.241,0.258-0.33c0.111-0.088,0.259-0.151,0.44-0.187c0.181-0.036,0.33-0.032,0.44,0.011
				c0.112,0.044,0.198,0.121,0.258,0.227c0.057,0.103,0.095,0.234,0.111,0.388C30.824,26.137,30.832,26.304,30.832,26.483z
				 M20.574,29.775l-0.082,0.016l-0.475,0.095l-0.051,0.01l-0.011-0.05L19.86,29.42l-0.5,0.1l-0.094,0.465l-0.011,0.054l-0.051,0.01
				l-0.475,0.095l-0.082,0.016l0.021-0.087l0.599-2.473l0.012-0.052l0.049-0.01l0.564-0.113l0.049-0.01l0.012,0.047l0.599,2.233
				L20.574,29.775z M17.796,30.279l-0.011,0.054l-0.051,0.01l-0.355,0.071l-0.051,0.01l-0.011-0.049l-0.284-1.267v1.309v0.066
				l-0.063,0.013l-0.418,0.084l-0.063,0.013v-0.066v-2.353v-0.066l0.063-0.013l0.678-0.136l0.052-0.01L17.292,28l0.265,1.307
				l0.267-1.413l0.01-0.055l0.052-0.01l0.675-0.135l0.063-0.013v0.066V30.1v0.066l-0.063,0.013l-0.418,0.084l-0.063,0.013V30.21
				v-1.309L17.796,30.279z M20.366,38.356h-3.889v-5.212l5.658-0.945L20.366,38.356z M22.247,29.355v0.02v0.066l-0.063,0.013
				l-0.494,0.099l-0.032,0.006l-0.019-0.023c-0.029-0.036-0.048-0.08-0.056-0.131c-0.007-0.043-0.011-0.09-0.013-0.139l-0.013-0.448
				c-0.004-0.077-0.021-0.134-0.053-0.169c-0.027-0.03-0.079-0.038-0.153-0.023l-0.181,0.036v0.929v0.066l-0.063,0.013l-0.457,0.09
				l-0.063,0.013v-0.066v-2.353v-0.066l0.063-0.013l0.843-0.168c0.205-0.041,0.369-0.018,0.486,0.07
				c0.119,0.089,0.179,0.247,0.179,0.469c0,0.17-0.034,0.319-0.102,0.443c-0.039,0.071-0.089,0.132-0.151,0.183
				c0.044,0.013,0.08,0.033,0.109,0.06c0.063,0.058,0.101,0.157,0.115,0.302c0.004,0.045,0.008,0.094,0.01,0.145
				s0.004,0.109,0.006,0.172c0.004,0.12,0.01,0.212,0.018,0.275c0.009,0.043,0.025,0.069,0.05,0.078l0.033,0.012L22.247,29.355
				L22.247,29.355z M22.954,26.881v2.353V29.3l-0.063,0.013l-0.456,0.091l-0.063,0.013V29.35v-2.353v-0.066l0.063-0.013l0.456-0.091
				l0.063-0.013V26.881z M24.762,28.198c-0.017,0.16-0.054,0.305-0.111,0.431c-0.06,0.131-0.147,0.241-0.259,0.326
				c-0.11,0.084-0.258,0.145-0.439,0.181s-0.329,0.034-0.439-0.006c-0.112-0.041-0.199-0.116-0.259-0.223
				c-0.057-0.103-0.095-0.233-0.111-0.387c-0.016-0.148-0.024-0.315-0.024-0.497c0-0.179,0.008-0.349,0.024-0.505
				c0.017-0.161,0.054-0.307,0.111-0.433c0.059-0.13,0.146-0.241,0.258-0.33c0.111-0.088,0.259-0.151,0.44-0.187
				c0.181-0.036,0.33-0.032,0.44,0.011c0.112,0.044,0.198,0.121,0.258,0.227c0.057,0.103,0.095,0.234,0.111,0.388
				c0.016,0.149,0.024,0.316,0.024,0.495C24.786,27.873,24.778,28.043,24.762,28.198z M27.255,27.968
				c-0.026,0.098-0.071,0.19-0.133,0.272c-0.062,0.082-0.144,0.154-0.242,0.215c-0.097,0.06-0.217,0.104-0.358,0.132l-0.77,0.154
				l-0.063,0.013v-0.066v-2.353v-0.066l0.063-0.013l0.764-0.153c0.097-0.019,0.189-0.027,0.273-0.023
				c0.088,0.004,0.165,0.026,0.229,0.065c0.065,0.04,0.117,0.1,0.152,0.18c0.035,0.078,0.053,0.178,0.053,0.299
				c0,0.14-0.032,0.269-0.096,0.383c-0.035,0.064-0.081,0.12-0.135,0.168c0.068,0.019,0.127,0.055,0.175,0.107
				c0.083,0.089,0.125,0.223,0.125,0.396C27.293,27.776,27.28,27.873,27.255,27.968z M28.522,28.187l-0.019-0.023
				c-0.029-0.036-0.048-0.08-0.056-0.131c-0.007-0.043-0.011-0.09-0.013-0.139l-0.013-0.448c-0.004-0.077-0.021-0.134-0.053-0.169
				c-0.027-0.03-0.079-0.038-0.153-0.023l-0.181,0.036v0.929v0.066l-0.063,0.013l-0.456,0.091l-0.063,0.013v-0.066v-2.353v-0.066
				l0.063-0.013l0.843-0.168c0.205-0.041,0.369-0.018,0.486,0.07c0.119,0.089,0.179,0.247,0.179,0.469
				c0,0.17-0.034,0.319-0.102,0.443c-0.039,0.071-0.089,0.132-0.151,0.183c0.044,0.013,0.08,0.033,0.109,0.06
				c0.063,0.058,0.101,0.157,0.115,0.302c0.004,0.045,0.008,0.094,0.01,0.145s0.004,0.109,0.006,0.172
				c0.004,0.12,0.01,0.212,0.018,0.275c0.009,0.043,0.025,0.069,0.05,0.078l0.033,0.012v0.039v0.02v0.066l-0.063,0.013l-0.494,0.099
				L28.522,28.187z M31.092,37.579c-1.271,0-2.302-1.03-2.302-2.302c0-1.271,1.03-2.302,2.302-2.302c1.271,0,2.302,1.03,2.302,2.302
				C33.394,36.549,32.363,37.579,31.092,37.579z"/>
			<path fill="#FFFFFF" d="M26.577,27c0.042-0.042,0.063-0.109,0.063-0.2c0-0.091-0.019-0.15-0.057-0.175
				c-0.041-0.028-0.111-0.032-0.21-0.012l-0.101,0.02v0.485l0.067-0.013C26.45,27.082,26.53,27.047,26.577,27z"/>
		</g>
		<g>
			<g>
				<path fill="#FFFFFF" d="M27.003,21.974l-0.087-0.391l-0.087-0.391l-0.087-0.391l-0.087-0.391l-0.087-0.391l-0.087-0.391
					l-0.492,0.109l0.087,0.391l-0.492,0.109l0.087,0.391l-0.492,0.109l-0.087-0.391l-0.087-0.391L24.92,19.56l-0.087-0.391
					l-0.492,0.109l-0.087-0.391l0.492-0.109l-0.087-0.391l-0.087-0.391l0.492-0.109l-0.087-0.391l-0.087-0.391l0.492-0.109
					l-0.087-0.391L25.21,16.21l-0.087-0.391l-0.087-0.391l-0.492,0.109l-0.492,0.109l-0.492,0.109l-0.492,0.109l-0.087-0.391
					l-0.492,0.109l0.087,0.391l-0.492,0.109l-0.492,0.109l0.087,0.391l0.492-0.109l0.087,0.391l0.492-0.109l0.492-0.109l0.492-0.109
					l0.492-0.109l-0.087-0.391l0.492-0.109l0.087,0.391l-0.492,0.109l0.087,0.391l-0.492,0.109l-0.492,0.109l-0.492,0.109
					l-0.492,0.109l-0.492,0.109l-0.492,0.109l-0.492,0.109l-0.492,0.109L20.29,17.3l-0.087-0.391l-0.492,0.109l-0.492,0.109
					l-0.087-0.391l-0.087-0.391l-0.087-0.391l-0.087-0.391L18.38,15.67l0.087,0.391l0.087,0.391l0.087,0.391l-0.492,0.109
					l0.087,0.391l0.087,0.391l0.492-0.109l0.492-0.109l0.087,0.391l0.492-0.109l0.087,0.391l-0.492,0.109l-0.492,0.109l-0.492,0.109
					l0.087,0.391L18.09,19.02l0.087,0.391l0.087,0.391l0.087,0.391l0.087,0.391l0.492-0.109l-0.087-0.391l0.492-0.109l-0.087-0.391
					l0.492-0.109l0.492-0.109l0.087,0.391l0.492-0.109l0.087,0.391l0.087,0.391l0.087,0.391L20.58,20.93l0.087,0.391l-0.492,0.109
					l0.087,0.391l0.087,0.391l0.087,0.391l-0.492,0.109l-0.492,0.109L18.96,22.93l0.087,0.391l0.087,0.391l0.087,0.391l0.087,0.391
					l0.087,0.391l0.087,0.391l0.087,0.391l0.492-0.109l-0.087-0.391l0.492-0.109l-0.087-0.391l0.492-0.109l0.492-0.109l0.492-0.109
					l0.492-0.109l0.492-0.109l-0.087-0.391l0.492-0.109l-0.087-0.391L23.07,22.84l0.492-0.109l0.492-0.109l0.087,0.391l0.492-0.109
					l0.492-0.109l0.492-0.109l0.492-0.109l0.492-0.109l0.492-0.109L27.003,21.974z M22.952,19.996l-0.087-0.391l0.492-0.109
					l0.087,0.391L22.952,19.996z"/>
				<polygon fill="#FFFFFF" points="19.856,15.343 19.943,15.735 20.03,16.126 20.116,16.518 20.608,16.409 21.1,16.3 
					21.014,15.908 20.927,15.517 20.435,15.626 20.348,15.234 20.261,14.843 20.753,14.734 21.245,14.625 21.332,15.016 
					21.419,15.408 21.911,15.299 21.824,14.907 21.737,14.516 22.229,14.407 22.721,14.298 23.213,14.189 23.3,14.58 23.792,14.471 
					24.284,14.362 24.371,14.754 24.863,14.644 24.95,15.036 25.037,15.427 25.529,15.318 25.442,14.927 25.355,14.535 
					25.268,14.144 25.182,13.752 25.095,13.361 25.008,12.97 24.516,13.079 24.024,13.188 23.532,13.297 23.04,13.406 
					22.548,13.515 22.461,13.123 22.374,12.732 21.882,12.841 21.39,12.95 20.898,13.059 20.406,13.168 19.914,13.277 
					20.001,13.668 19.509,13.777 19.017,13.886 19.104,14.278 18.612,14.387 18.699,14.778 18.785,15.17 18.872,15.561 
					19.364,15.452 				"/>
				
					<rect x="19.14" y="21.2" transform="matrix(0.9763 -0.2164 0.2164 0.9763 -4.1716 4.7036)" fill="#FFFFFF" width="0.504" height="0.401"/>
			</g>
			<polygon fill="#FFFFFF" points="24.342,12.296 23.85,12.405 23.764,12.013 23.272,12.122 23.445,12.905 24.429,12.687 			"/>
		</g>
	</g>
</g>
<g>
	<path fill="#FFFFFF" d="M50,0v50h50V0H50z M71.174,23.787v-8.914h7.651v8.914h3.257L75,30.882l-7.083-7.095H71.174z M83.32,35.127
		H66.68v-5.662h2.458v3.204h11.723v-3.204h2.458L83.32,35.127L83.32,35.127z"/>
</g>
</svg>
