<?xml version="1.0" encoding="utf-8"?>
<!-- Generator: Adobe Illustrator 17.0.0, SVG Export Plug-In . SVG Version: 6.00 Build 0)  -->
<!DOCTYPE svg PUBLIC "-//W3C//DTD SVG 1.1//EN" "http://www.w3.org/Graphics/SVG/1.1/DTD/svg11.dtd">
<svg version="1.1" id="Layer_1" xmlns="http://www.w3.org/2000/svg" xmlns:xlink="http://www.w3.org/1999/xlink" x="0px" y="0px"
	 width="100px" height="100px" viewBox="0 0 100 100" enable-background="new 0 0 100 100" xml:space="preserve">
<g>
	<path d="M39.901,82.819c0,0.08-0.066,0.144-0.148,0.144h-15.36c-0.082,0-0.148-0.065-0.148-0.144v-1.372
		c0-0.08,0.066-0.144,0.148-0.144h15.36c0.082,0,0.148,0.065,0.148,0.144V82.819z"/>
	<path d="M39.901,79.569c0,0.08-0.066,0.144-0.148,0.144h-15.36c-0.082,0-0.148-0.065-0.148-0.144v-1.372
		c0-0.08,0.066-0.144,0.148-0.144h15.36c0.082,0,0.148,0.065,0.148,0.144V79.569z"/>
	<path d="M39.901,76.319c0,0.08-0.066,0.144-0.148,0.144h-15.36c-0.082,0-0.148-0.065-0.148-0.144v-1.372
		c0-0.08,0.066-0.144,0.148-0.144h15.36c0.082,0,0.148,0.065,0.148,0.144V76.319z"/>
	<path d="M39.901,73.069c0,0.08-0.066,0.144-0.148,0.144h-15.36c-0.082,0-0.148-0.065-0.148-0.144v-1.372
		c0-0.08,0.066-0.144,0.148-0.144h15.36c0.082,0,0.148,0.065,0.148,0.144V73.069z"/>
	<path d="M39.901,69.819c0,0.08-0.066,0.144-0.148,0.144h-15.36c-0.082,0-0.148-0.065-0.148-0.144v-1.372
		c0-0.08,0.066-0.144,0.148-0.144h15.36c0.082,0,0.148,0.065,0.148,0.144V69.819z"/>
	<path d="M39.901,66.568c0,0.08-0.066,0.144-0.148,0.144h-15.36c-0.082,0-0.148-0.065-0.148-0.144v-1.372
		c0-0.08,0.066-0.144,0.148-0.144h15.36c0.082,0,0.148,0.065,0.148,0.144V66.568z"/>
	<path d="M39.901,63.318c0,0.08-0.066,0.144-0.148,0.144h-15.36c-0.082,0-0.148-0.065-0.148-0.144v-1.372
		c0-0.08,0.066-0.144,0.148-0.144h15.36c0.082,0,0.148,0.065,0.148,0.144V63.318z"/>
	<path d="M39.901,59.985c0,0.08-0.066,0.144-0.148,0.144h-15.36c-0.082,0-0.148-0.065-0.148-0.144v-1.372
		c0-0.08,0.066-0.144,0.148-0.144h15.36c0.082,0,0.148,0.065,0.148,0.144V59.985z"/>
	<path d="M39.901,56.735c0,0.08-0.066,0.144-0.148,0.144h-15.36c-0.082,0-0.148-0.065-0.148-0.144v-1.372
		c0-0.08,0.066-0.144,0.148-0.144h15.36c0.082,0,0.148,0.065,0.148,0.144V56.735z"/>
	<path d="M39.901,53.485c0,0.08-0.066,0.144-0.148,0.144h-15.36c-0.082,0-0.148-0.065-0.148-0.144v-1.372
		c0-0.08,0.066-0.144,0.148-0.144h15.36c0.082,0,0.148,0.065,0.148,0.144V53.485z"/>
	<path d="M39.901,50.235c0,0.08-0.066,0.144-0.148,0.144h-15.36c-0.082,0-0.148-0.065-0.148-0.144v-1.372
		c0-0.08,0.066-0.144,0.148-0.144h15.36c0.082,0,0.148,0.065,0.148,0.144V50.235z"/>
	<path d="M39.901,46.985c0,0.08-0.066,0.144-0.148,0.144h-15.36c-0.082,0-0.148-0.065-0.148-0.144v-1.372
		c0-0.08,0.066-0.144,0.148-0.144h15.36c0.082,0,0.148,0.065,0.148,0.144V46.985z"/>
	<path d="M39.901,43.735c0,0.08-0.066,0.144-0.148,0.144h-15.36c-0.082,0-0.148-0.065-0.148-0.144v-1.372
		c0-0.08,0.066-0.144,0.148-0.144h15.36c0.082,0,0.148,0.065,0.148,0.144V43.735z"/>
	<path d="M39.901,40.485c0,0.08-0.066,0.144-0.148,0.144h-15.36c-0.082,0-0.148-0.065-0.148-0.144v-1.372
		c0-0.08,0.066-0.144,0.148-0.144h15.36c0.082,0,0.148,0.065,0.148,0.144V40.485z"/>
	<path d="M39.901,37.235c0,0.08-0.066,0.144-0.148,0.144h-15.36c-0.082,0-0.148-0.065-0.148-0.144v-1.372
		c0-0.08,0.066-0.144,0.148-0.144h15.36c0.082,0,0.148,0.065,0.148,0.144V37.235z"/>
	<path d="M39.901,33.985c0,0.08-0.066,0.144-0.148,0.144h-15.36c-0.082,0-0.148-0.065-0.148-0.144v-1.372
		c0-0.08,0.066-0.144,0.148-0.144h15.36c0.082,0,0.148,0.065,0.148,0.144V33.985z"/>
	<path d="M39.901,30.735c0,0.08-0.066,0.144-0.148,0.144h-15.36c-0.082,0-0.148-0.065-0.148-0.144v-1.372
		c0-0.08,0.066-0.144,0.148-0.144h15.36c0.082,0,0.148,0.065,0.148,0.144V30.735z"/>
	<path d="M39.901,27.485c0,0.08-0.066,0.144-0.148,0.144h-15.36c-0.082,0-0.148-0.065-0.148-0.144v-1.372
		c0-0.08,0.066-0.144,0.148-0.144h15.36c0.082,0,0.148,0.065,0.148,0.144V27.485z"/>
	<path d="M39.901,24.235c0,0.08-0.066,0.144-0.148,0.144h-15.36c-0.082,0-0.148-0.065-0.148-0.144v-1.372
		c0-0.08,0.066-0.144,0.148-0.144h15.36c0.082,0,0.148,0.065,0.148,0.144V24.235z"/>
	<path d="M39.901,20.984c0,0.08-0.066,0.144-0.148,0.144h-15.36c-0.082,0-0.148-0.065-0.148-0.144v-1.372
		c0-0.08,0.066-0.144,0.148-0.144h15.36c0.082,0,0.148,0.065,0.148,0.144V20.984z"/>
	<path d="M39.901,17.734c0,0.08-0.066,0.144-0.148,0.144h-15.36c-0.082,0-0.148-0.065-0.148-0.144v-1.372
		c0-0.08,0.066-0.144,0.148-0.144h15.36c0.082,0,0.148,0.065,0.148,0.144V17.734z"/>
	<path d="M39.901,14.484c0,0.08-0.066,0.144-0.148,0.144h-15.36c-0.082,0-0.148-0.065-0.148-0.144v-1.372
		c0-0.08,0.066-0.144,0.148-0.144h15.36c0.082,0,0.148,0.065,0.148,0.144V14.484z"/>
	<path d="M39.901,11.234c0,0.08-0.066,0.144-0.148,0.144h-15.36c-0.082,0-0.148-0.065-0.148-0.144V9.862
		c0-0.08,0.066-0.144,0.148-0.144h15.36c0.082,0,0.148,0.065,0.148,0.144V11.234z"/>
	<path d="M39.901,7.984c0,0.08-0.066,0.144-0.148,0.144h-15.36c-0.082,0-0.148-0.065-0.148-0.144V6.612
		c0-0.08,0.066-0.144,0.148-0.144h15.36c0.082,0,0.148,0.065,0.148,0.144V7.984z"/>
	<g>
		<path d="M18.733,7.146h-3.858l-0.897-0.679h-1.641c-0.328,0-0.594,0.266-0.594,0.594v69.521c0,0.328,0.266,0.594,0.594,0.594
			h3.565V92.94c0,0.328,0.266,0.594,0.594,0.594h7.153V6.467H19.17L18.733,7.146z"/>
		<path d="M88.818,6.467h-1.641L86.28,7.146h-3.858l-0.437-0.679h-2.963v0.297H42.651V6.467h-2.23v87.066h44.238
			c0.328,0,0.594-0.266,0.594-0.594V77.175h3.565c0.328,0,0.594-0.266,0.594-0.594V7.061C89.412,6.733,89.146,6.467,88.818,6.467z
			 M50.578,76.664l-3.531-6.116h7.063L50.578,76.664z M78.429,65.434H43.244c-0.328,0-0.594-0.266-0.594-0.594V11.459h36.372V64.84
			C79.023,65.168,78.757,65.434,78.429,65.434z"/>
	</g>
	<g>
		<path d="M39.827,85.262c0-0.328-0.266-0.594-0.594-0.594H24.837c-0.328,0-0.594,0.266-0.594,0.594v8.271h15.583L39.827,85.262
			L39.827,85.262z"/>
	</g>
</g>
</svg>
