<?xml version="1.0" encoding="utf-8"?>
<!-- Generator: Adobe Illustrator 17.0.0, SVG Export Plug-In . SVG Version: 6.00 Build 0)  -->
<!DOCTYPE svg PUBLIC "-//W3C//DTD SVG 1.1//EN" "http://www.w3.org/Graphics/SVG/1.1/DTD/svg11.dtd">
<svg version="1.1" id="Layer_1" xmlns="http://www.w3.org/2000/svg" xmlns:xlink="http://www.w3.org/1999/xlink" x="0px" y="0px"
	 width="100px" height="50px" viewBox="0 0 100 50" enable-background="new 0 0 100 50" xml:space="preserve">
<g>
	<path fill="#FFFFFF" d="M50,0v50h50V0H50z M71.174,23.787v-8.914h7.651v8.914h3.257L75,30.882l-7.083-7.095H71.174z M83.32,35.127
		H66.68v-5.662h2.458v3.204h11.723v-3.204h2.458L83.32,35.127L83.32,35.127z"/>
</g>
<path id="cpu-icon_2_" fill="#FFFFFF" d="M33.088,30.978c0,1.201-0.973,2.174-2.174,2.174H18.958c-1.201,0-2.174-0.973-2.174-2.174
	V19.022c0-1.201,0.973-2.174,2.174-2.174h11.956c1.201,0,2.174,0.973,2.174,2.174V30.978z M21.132,34.239V37.5h-1.087v-3.261H21.132
	z M25.479,34.239V37.5h-1.087v-3.261H25.479z M27.653,34.239V37.5h-1.087v-3.261H27.653z M23.306,34.239V37.5h-1.087v-3.261H23.306z
	 M29.827,34.239V37.5H28.74v-3.261H29.827z M21.132,12.5v3.261h-1.087V12.5H21.132z M25.479,12.5v3.261h-1.087V12.5H25.479z
	 M27.653,12.5v3.261h-1.087V12.5H27.653z M23.306,12.5v3.261h-1.087V12.5H23.306z M29.827,12.5v3.261H28.74V12.5H29.827z
	 M34.175,28.804h3.261v1.087h-3.261V28.804z M34.175,24.456h3.261v1.087h-3.261V24.456z M34.175,22.283h3.261v1.087h-3.261V22.283z
	 M34.175,26.63h3.261v1.087h-3.261V26.63z M34.175,20.109h3.261v1.087h-3.261V20.109z M12.436,28.804h3.261v1.087h-3.261V28.804z
	 M12.436,24.456h3.261v1.087h-3.261V24.456z M12.436,22.283h3.261v1.087h-3.261V22.283z M12.436,26.63h3.261v1.087h-3.261V26.63z
	 M12.436,20.109h3.261v1.087h-3.261V20.109z"/>
</svg>
