<?xml version="1.0" encoding="utf-8"?>
<!-- Generator: Adobe Illustrator 17.0.0, SVG Export Plug-In . SVG Version: 6.00 Build 0)  -->
<!DOCTYPE svg PUBLIC "-//W3C//DTD SVG 1.1//EN" "http://www.w3.org/Graphics/SVG/1.1/DTD/svg11.dtd">
<svg version="1.1" id="Layer_1" xmlns="http://www.w3.org/2000/svg" xmlns:xlink="http://www.w3.org/1999/xlink" x="0px" y="0px"
	 width="100px" height="50px" viewBox="0 0 100 50" enable-background="new 0 0 100 50" xml:space="preserve">
<g>
	<polygon points="55.016,41.942 60.731,41.942 60.731,36.227 66.445,36.227 66.445,41.942 72.159,41.942 72.159,36.227 
		77.874,36.227 77.874,41.942 83.588,41.942 83.588,36.227 89.302,36.227 89.302,41.942 95.016,41.942 95.016,30.513 89.302,30.513 
		89.302,7.656 60.731,7.656 60.731,30.513 55.016,30.513 	"/>
	<rect x="72.159" y="19.085" fill="#FF0000" width="5.714" height="5.714"/>
</g>
<g>
	<polygon points="5.016,41.942 10.731,41.942 10.731,36.227 16.445,36.227 16.445,41.942 22.159,41.942 22.159,36.227 
		27.874,36.227 27.874,41.942 33.588,41.942 33.588,36.227 39.302,36.227 39.302,41.942 45.016,41.942 45.016,30.513 39.302,30.513 
		39.302,7.656 10.731,7.656 10.731,30.513 5.016,30.513 	"/>
	<rect x="22.159" y="19.085" fill="#FFFFFF" width="5.714" height="5.714"/>
</g>
</svg>
