<?xml version="1.0" encoding="utf-8"?>
<!-- Generator: Adobe Illustrator 17.0.0, SVG Export Plug-In . SVG Version: 6.00 Build 0)  -->
<!DOCTYPE svg PUBLIC "-//W3C//DTD SVG 1.1//EN" "http://www.w3.org/Graphics/SVG/1.1/DTD/svg11.dtd">
<svg version="1.1" id="Layer_1" xmlns="http://www.w3.org/2000/svg" xmlns:xlink="http://www.w3.org/1999/xlink" x="0px" y="0px"
	 width="100px" height="100px" viewBox="0 0 100 100" enable-background="new 0 0 100 100" xml:space="preserve">
<g>
	<path fill="#FFFFFF" d="M72.051,10.589H27.949c-0.955,0-1.729,0.774-1.729,1.729v75.363c0,0.955,0.774,1.729,1.729,1.729H63.9
		c5.456,0,9.88-4.423,9.88-9.88V12.318C73.78,11.363,73.006,10.589,72.051,10.589z M29.933,46.579V18.347
		c0-0.571,0.463-1.033,1.033-1.033h38.068c0.571,0,1.033,0.463,1.033,1.033v23.36c0,3.261-2.644,5.905-5.905,5.905H30.966
		C30.396,47.612,29.933,47.15,29.933,46.579z M70.49,61.837c0,1.621-1.314,2.935-2.935,2.935c-1.621,0-2.935-1.314-2.935-2.935
		s1.314-2.935,2.935-2.935C69.176,58.902,70.49,60.216,70.49,61.837z M62.525,65.351c0,1.621-1.314,2.935-2.935,2.935
		c-1.621,0-2.935-1.314-2.935-2.935s1.314-2.935,2.935-2.935C61.211,62.417,62.525,63.731,62.525,65.351z M37.812,69.707h-4.127
		v-3.339h-3.339v-4.127h3.339v-3.339h4.127v3.339h3.339v4.127h-3.339V69.707z M45.868,75.429l-4.256,2.045
		c-0.4,0.192-0.881,0.024-1.073-0.377c-0.192-0.4-0.023-0.881,0.377-1.073l4.256-2.045c0.4-0.192,0.881-0.024,1.073,0.377
		C46.437,74.756,46.268,75.236,45.868,75.429z M53.957,75.429l-4.256,2.045c-0.4,0.192-0.881,0.024-1.073-0.377
		c-0.192-0.4-0.023-0.881,0.377-1.073l4.256-2.045c0.4-0.192,0.881-0.024,1.073,0.377C54.526,74.756,54.357,75.236,53.957,75.429z
		 M59.799,87.897c-0.242,0.135-0.548,0.047-0.683-0.195l-3.391-6.096c-0.135-0.242-0.048-0.548,0.195-0.683
		c0.242-0.135,0.548-0.047,0.683,0.195l3.391,6.096C60.128,87.456,60.041,87.762,59.799,87.897z M62.16,86.583
		c-0.242,0.135-0.548,0.047-0.683-0.195l-3.391-6.096c-0.135-0.242-0.048-0.548,0.195-0.683c0.242-0.135,0.548-0.047,0.683,0.195
		l3.391,6.096C62.49,86.142,62.403,86.448,62.16,86.583z M64.522,85.269c-0.242,0.135-0.548,0.047-0.683-0.195l-3.391-6.096
		c-0.135-0.242-0.048-0.548,0.195-0.683c0.242-0.135,0.548-0.047,0.683,0.195l3.391,6.096
		C64.851,84.829,64.764,85.135,64.522,85.269z M66.883,83.956c-0.242,0.135-0.548,0.047-0.683-0.195l-3.391-6.096
		c-0.135-0.242-0.048-0.548,0.195-0.683c0.242-0.135,0.548-0.047,0.683,0.195l3.391,6.096
		C67.213,83.515,67.126,83.821,66.883,83.956z M69.245,82.642c-0.242,0.135-0.548,0.047-0.683-0.195l-3.391-6.096
		c-0.135-0.242-0.048-0.548,0.195-0.683s0.548-0.047,0.683,0.195l3.391,6.096C69.574,82.201,69.487,82.507,69.245,82.642z
		 M71.606,81.328c-0.242,0.135-0.548,0.047-0.683-0.195l-3.391-6.096c-0.135-0.242-0.048-0.548,0.195-0.683
		c0.242-0.135,0.548-0.047,0.683,0.195l3.391,6.096C71.936,80.888,71.849,81.194,71.606,81.328z"/>
	<rect x="37.253" y="20.593" fill="#FFFFFF" width="25.493" height="23.341"/>
	<path fill="#FFFFFF" d="M63.9,64.711"/>
	<circle fill="#FFFFFF" cx="32.855" cy="28.582" r="0.671"/>
</g>
</svg>
