<?xml version="1.0" encoding="utf-8"?>
<!-- Generator: Adobe Illustrator 17.0.0, SVG Export Plug-In . SVG Version: 6.00 Build 0)  -->
<!DOCTYPE svg PUBLIC "-//W3C//DTD SVG 1.1//EN" "http://www.w3.org/Graphics/SVG/1.1/DTD/svg11.dtd">
<svg version="1.1" id="Layer_1" xmlns="http://www.w3.org/2000/svg" xmlns:xlink="http://www.w3.org/1999/xlink" x="0px" y="0px"
	 width="100px" height="100px" viewBox="0 0 100 100" enable-background="new 0 0 100 100" xml:space="preserve">
<g>
	<path fill="#FFFFFF" d="M87.444,32.195v-0.907c-2.98-1.556-6.365-2.441-9.96-2.441H66.747v0.801H33.253v-0.801H22.516
		c-3.594,0-6.98,0.885-9.96,2.441v0.907C6.126,35.72,1.764,42.55,1.764,50.401c0,11.461,9.291,20.752,20.752,20.752
		c5.276,0,10.089-1.972,13.751-5.216h27.466c3.661,3.243,8.474,5.216,13.751,5.216c11.461,0,20.752-9.291,20.752-20.752
		C98.236,42.55,93.874,35.72,87.444,32.195z M29.939,53.442h-4.588v4.587h-5.67v-4.587h-4.588v-5.67h4.588v-4.587h5.67v4.587h4.588
		V53.442z M44.042,53.012l-4.144,3.184c-0.632,0.485-1.539,0.367-2.023-0.265c-0.486-0.632-0.367-1.539,0.265-2.024l4.144-3.184
		c0.632-0.485,1.539-0.367,2.024,0.265C44.792,51.62,44.673,52.527,44.042,53.012z M54.51,53.012l-4.144,3.184
		c-0.631,0.485-1.538,0.367-2.023-0.265c-0.486-0.632-0.367-1.539,0.265-2.024l4.144-3.184c0.631-0.485,1.538-0.367,2.023,0.265
		C55.26,51.62,55.141,52.527,54.51,53.012z M77.484,68.269c-9.869,0-17.868-8-17.868-17.868c0-9.868,7.999-17.868,17.868-17.868
		c9.868,0,17.867,8,17.867,17.868C95.351,60.269,87.352,68.269,77.484,68.269z"/>
	<circle fill="#FFFFFF" cx="77.484" cy="43.184" r="3.608"/>
	<circle fill="#FFFFFF" cx="86.647" cy="50.401" r="3.608"/>
	<circle fill="#FFFFFF" cx="68.321" cy="50.401" r="3.608"/>
	<circle fill="#FFFFFF" cx="77.484" cy="57.617" r="3.608"/>
</g>
</svg>
