<?xml version="1.0" encoding="utf-8"?>
<!-- Generator: Adobe Illustrator 17.0.0, SVG Export Plug-In . SVG Version: 6.00 Build 0)  -->
<!DOCTYPE svg PUBLIC "-//W3C//DTD SVG 1.1//EN" "http://www.w3.org/Graphics/SVG/1.1/DTD/svg11.dtd">
<svg version="1.1" id="Layer_1" xmlns="http://www.w3.org/2000/svg" xmlns:xlink="http://www.w3.org/1999/xlink" x="0px" y="0px"
	 width="100px" height="50px" viewBox="0 0 100 50" enable-background="new 0 0 100 50" xml:space="preserve">
<g>
	<path fill="#FFFFFF" d="M50,0v50h50V0H50z M71.174,23.787v-8.914h7.651v8.914h3.257L75,30.882l-7.083-7.095H71.174z M83.32,35.127
		H66.68v-5.662h2.458v3.204h11.723v-3.204h2.458L83.32,35.127L83.32,35.127z"/>
</g>
<path id="book-17-icon_2_" fill="#FFFFFF" d="M35.936,14.076v21.852l-0.755,0.121V14.076V11.68
	c-4.057,0.124-7.898,0.776-10.499,2.395c-2.601-1.619-6.442-2.271-10.499-2.395v2.396V36.05l-0.755-0.121V14.076h-1.244v23.299
	h9.434c1.54,0,1.709,0.945,3.064,0.945c1.358,0,1.522-0.945,3.064-0.945h9.437V14.076H35.936z M23.651,35.884
	c-2.027-0.804-4.484-1.322-7.466-1.546V13.86c2.449,0.205,5.379,0.703,7.466,2.002V35.884z M33.179,34.338
	c-2.982,0.224-5.439,0.742-7.466,1.546V15.862c2.087-1.299,5.017-1.796,7.466-2.002V34.338z"/>
</svg>
