<?xml version="1.0" encoding="utf-8"?>
<!-- Generator: Adobe Illustrator 17.0.0, SVG Export Plug-In . SVG Version: 6.00 Build 0)  -->
<!DOCTYPE svg PUBLIC "-//W3C//DTD SVG 1.1//EN" "http://www.w3.org/Graphics/SVG/1.1/DTD/svg11.dtd">
<svg version="1.1" id="Layer_1" xmlns="http://www.w3.org/2000/svg" xmlns:xlink="http://www.w3.org/1999/xlink" x="0px" y="0px"
	 width="25px" height="25px" viewBox="0 0 25 25" enable-background="new 0 0 25 25" xml:space="preserve">
<path id="magnifier-2-icon" fill="#FFFFFF" d="M24.9,22.548l-6.463-6.463c1.216-1.672,1.935-3.728,1.935-5.949
	C20.372,4.547,15.825,0,10.236,0C4.647,0,0.1,4.547,0.1,10.136c0,5.589,4.547,10.136,10.136,10.136c2.118,0,4.087-0.654,5.715-1.769
	L22.448,25L24.9,22.548z M3.072,10.136c0-3.95,3.214-7.164,7.164-7.164c3.95,0,7.164,3.214,7.164,7.164
	c0,3.95-3.214,7.164-7.164,7.164C6.286,17.3,3.072,14.086,3.072,10.136z"/>
</svg>
