<?xml version="1.0" encoding="utf-8"?>
<!-- Generator: Adobe Illustrator 17.0.0, SVG Export Plug-In . SVG Version: 6.00 Build 0)  -->
<!DOCTYPE svg PUBLIC "-//W3C//DTD SVG 1.1//EN" "http://www.w3.org/Graphics/SVG/1.1/DTD/svg11.dtd">
<svg version="1.1" id="Layer_1" xmlns="http://www.w3.org/2000/svg" xmlns:xlink="http://www.w3.org/1999/xlink" x="0px" y="0px"
	 width="100px" height="50px" viewBox="0 0 100 50" enable-background="new 0 0 100 50" xml:space="preserve">
<g>
	<path fill="#FFFFFF" d="M50,0v50h50V0H50z M71.174,23.787v-8.914h7.651v8.914h3.257L75,30.882l-7.083-7.095H71.174z M83.32,35.127
		H66.68v-5.662h2.458v3.204h11.723v-3.204h2.458L83.32,35.127L83.32,35.127z"/>
</g>
<g>
	<path fill="#FFFFFF" d="M21.798,34.843c0,0.024-0.02,0.043-0.044,0.043h-4.607c-0.025,0-0.044-0.019-0.044-0.043v-0.411
		c0-0.024,0.02-0.043,0.044-0.043h4.607c0.025,0,0.044,0.019,0.044,0.043V34.843z"/>
	<path fill="#FFFFFF" d="M21.798,33.868c0,0.024-0.02,0.043-0.044,0.043h-4.607c-0.025,0-0.044-0.019-0.044-0.043v-0.411
		c0-0.024,0.02-0.043,0.044-0.043h4.607c0.025,0,0.044,0.019,0.044,0.043V33.868z"/>
	<path fill="#FFFFFF" d="M21.798,32.893c0,0.024-0.02,0.043-0.044,0.043h-4.607c-0.025,0-0.044-0.019-0.044-0.043v-0.411
		c0-0.024,0.02-0.043,0.044-0.043h4.607c0.025,0,0.044,0.019,0.044,0.043V32.893z"/>
	<path fill="#FFFFFF" d="M21.798,31.919c0,0.024-0.02,0.043-0.044,0.043h-4.607c-0.025,0-0.044-0.019-0.044-0.043v-0.411
		c0-0.024,0.02-0.043,0.044-0.043h4.607c0.025,0,0.044,0.019,0.044,0.043V31.919z"/>
	<path fill="#FFFFFF" d="M21.798,30.944c0,0.024-0.02,0.043-0.044,0.043h-4.607c-0.025,0-0.044-0.019-0.044-0.043v-0.411
		c0-0.024,0.02-0.043,0.044-0.043h4.607c0.025,0,0.044,0.019,0.044,0.043V30.944z"/>
	<path fill="#FFFFFF" d="M21.798,29.969c0,0.024-0.02,0.043-0.044,0.043h-4.607c-0.025,0-0.044-0.019-0.044-0.043v-0.411
		c0-0.024,0.02-0.043,0.044-0.043h4.607c0.025,0,0.044,0.019,0.044,0.043V29.969z"/>
	<path fill="#FFFFFF" d="M21.798,28.994c0,0.024-0.02,0.043-0.044,0.043h-4.607c-0.025,0-0.044-0.019-0.044-0.043v-0.411
		c0-0.024,0.02-0.043,0.044-0.043h4.607c0.025,0,0.044,0.019,0.044,0.043V28.994z"/>
	<path fill="#FFFFFF" d="M21.798,27.995c0,0.024-0.02,0.043-0.044,0.043h-4.607c-0.025,0-0.044-0.019-0.044-0.043v-0.411
		c0-0.024,0.02-0.043,0.044-0.043h4.607c0.025,0,0.044,0.019,0.044,0.043V27.995z"/>
	<path fill="#FFFFFF" d="M21.798,27.02c0,0.024-0.02,0.043-0.044,0.043h-4.607c-0.025,0-0.044-0.019-0.044-0.043v-0.411
		c0-0.024,0.02-0.043,0.044-0.043h4.607c0.025,0,0.044,0.019,0.044,0.043V27.02z"/>
	<path fill="#FFFFFF" d="M21.798,26.045c0,0.024-0.02,0.043-0.044,0.043h-4.607c-0.025,0-0.044-0.019-0.044-0.043v-0.411
		c0-0.024,0.02-0.043,0.044-0.043h4.607c0.025,0,0.044,0.019,0.044,0.043V26.045z"/>
	<path fill="#FFFFFF" d="M21.798,25.07c0,0.024-0.02,0.043-0.044,0.043h-4.607c-0.025,0-0.044-0.019-0.044-0.043v-0.411
		c0-0.024,0.02-0.043,0.044-0.043h4.607c0.025,0,0.044,0.019,0.044,0.043V25.07z"/>
	<path fill="#FFFFFF" d="M21.798,24.096c0,0.024-0.02,0.043-0.044,0.043h-4.607c-0.025,0-0.044-0.019-0.044-0.043v-0.411
		c0-0.024,0.02-0.043,0.044-0.043h4.607c0.025,0,0.044,0.019,0.044,0.043V24.096z"/>
	<path fill="#FFFFFF" d="M21.798,23.121c0,0.024-0.02,0.043-0.044,0.043h-4.607c-0.025,0-0.044-0.019-0.044-0.043v-0.411
		c0-0.024,0.02-0.043,0.044-0.043h4.607c0.025,0,0.044,0.019,0.044,0.043V23.121z"/>
	<path fill="#FFFFFF" d="M21.798,22.146c0,0.024-0.02,0.043-0.044,0.043h-4.607c-0.025,0-0.044-0.019-0.044-0.043v-0.411
		c0-0.024,0.02-0.043,0.044-0.043h4.607c0.025,0,0.044,0.019,0.044,0.043V22.146z"/>
	<path fill="#FFFFFF" d="M21.798,21.171c0,0.024-0.02,0.043-0.044,0.043h-4.607c-0.025,0-0.044-0.019-0.044-0.043V20.76
		c0-0.024,0.02-0.043,0.044-0.043h4.607c0.025,0,0.044,0.019,0.044,0.043V21.171z"/>
	<path fill="#FFFFFF" d="M21.798,20.197c0,0.024-0.02,0.043-0.044,0.043h-4.607c-0.025,0-0.044-0.019-0.044-0.043v-0.411
		c0-0.024,0.02-0.043,0.044-0.043h4.607c0.025,0,0.044,0.019,0.044,0.043V20.197z"/>
	<path fill="#FFFFFF" d="M21.798,19.222c0,0.024-0.02,0.043-0.044,0.043h-4.607c-0.025,0-0.044-0.019-0.044-0.043V18.81
		c0-0.024,0.02-0.043,0.044-0.043h4.607c0.025,0,0.044,0.019,0.044,0.043V19.222z"/>
	<path fill="#FFFFFF" d="M21.798,18.247c0,0.024-0.02,0.043-0.044,0.043h-4.607c-0.025,0-0.044-0.019-0.044-0.043v-0.411
		c0-0.024,0.02-0.043,0.044-0.043h4.607c0.025,0,0.044,0.019,0.044,0.043V18.247z"/>
	<path fill="#FFFFFF" d="M21.798,17.273c0,0.024-0.02,0.043-0.044,0.043h-4.607c-0.025,0-0.044-0.019-0.044-0.043v-0.411
		c0-0.024,0.02-0.043,0.044-0.043h4.607c0.025,0,0.044,0.019,0.044,0.043V17.273z"/>
	<path fill="#FFFFFF" d="M21.798,16.297c0,0.024-0.02,0.043-0.044,0.043h-4.607c-0.025,0-0.044-0.019-0.044-0.043v-0.411
		c0-0.024,0.02-0.043,0.044-0.043h4.607c0.025,0,0.044,0.019,0.044,0.043V16.297z"/>
	<path fill="#FFFFFF" d="M21.798,15.323c0,0.024-0.02,0.043-0.044,0.043h-4.607c-0.025,0-0.044-0.019-0.044-0.043v-0.411
		c0-0.024,0.02-0.043,0.044-0.043h4.607c0.025,0,0.044,0.019,0.044,0.043V15.323z"/>
	<path fill="#FFFFFF" d="M21.798,14.348c0,0.024-0.02,0.043-0.044,0.043h-4.607c-0.025,0-0.044-0.019-0.044-0.043v-0.411
		c0-0.024,0.02-0.043,0.044-0.043h4.607c0.025,0,0.044,0.019,0.044,0.043V14.348z"/>
	<path fill="#FFFFFF" d="M21.798,13.373c0,0.024-0.02,0.043-0.044,0.043h-4.607c-0.025,0-0.044-0.019-0.044-0.043v-0.411
		c0-0.024,0.02-0.043,0.044-0.043h4.607c0.025,0,0.044,0.019,0.044,0.043V13.373z"/>
	<path fill="#FFFFFF" d="M21.798,12.399c0,0.024-0.02,0.043-0.044,0.043h-4.607c-0.025,0-0.044-0.019-0.044-0.043v-0.411
		c0-0.024,0.02-0.043,0.044-0.043h4.607c0.025,0,0.044,0.019,0.044,0.043V12.399z"/>
	<g>
		<path fill="#FFFFFF" d="M15.449,12.147h-1.157l-0.269-0.204h-0.492c-0.098,0-0.178,0.08-0.178,0.178v20.85
			c0,0.098,0.08,0.178,0.178,0.178H14.6v4.728c0,0.098,0.08,0.178,0.178,0.178h2.145V11.944H15.58L15.449,12.147z"/>
		<path fill="#FFFFFF" d="M36.469,11.944h-0.492l-0.269,0.204h-1.157l-0.131-0.204h-0.889v0.089H22.623v-0.089h-0.669v26.113h13.268
			c0.098,0,0.178-0.08,0.178-0.178V33.15h1.069c0.098,0,0.178-0.08,0.178-0.178v-20.85C36.647,12.023,36.567,11.944,36.469,11.944z
			 M25,32.997l-1.059-1.834h2.118L25,32.997z M33.353,29.629H22.801c-0.098,0-0.178-0.08-0.178-0.178v-16.01h10.909v16.01
			C33.531,29.549,33.451,29.629,33.353,29.629z"/>
	</g>
	<g>
		<path fill="#FFFFFF" d="M21.776,35.575c0-0.098-0.08-0.178-0.178-0.178H17.28c-0.098,0-0.178,0.08-0.178,0.178v2.481h4.674
			L21.776,35.575L21.776,35.575z"/>
	</g>
</g>
</svg>
