<?xml version="1.0" encoding="utf-8"?>
<!-- Generator: Adobe Illustrator 17.0.0, SVG Export Plug-In . SVG Version: 6.00 Build 0)  -->
<!DOCTYPE svg PUBLIC "-//W3C//DTD SVG 1.1//EN" "http://www.w3.org/Graphics/SVG/1.1/DTD/svg11.dtd">
<svg version="1.1" id="Layer_1" xmlns="http://www.w3.org/2000/svg" xmlns:xlink="http://www.w3.org/1999/xlink" x="0px" y="0px"
	 width="100px" height="100px" viewBox="0 0 100 100" enable-background="new 0 0 100 100" xml:space="preserve">
<g>
	<g>
		<path fill="#FFFFFF" d="M71.795,52.896h-7.938c-0.489,0-0.886,0.396-0.886,0.886v7.938c0,0.489,0.397,0.886,0.886,0.886h7.938
			c0.49,0,0.886-0.397,0.886-0.886v-7.938C72.681,53.292,72.284,52.896,71.795,52.896z M67.826,61.626
			c-2.141,0-3.875-1.735-3.875-3.875s1.734-3.875,3.875-3.875c2.14,0,3.875,1.735,3.875,3.875S69.966,61.626,67.826,61.626z"/>
	</g>
	<g>
		<path fill="#FFFFFF" d="M83.199,52.896h-7.938c-0.489,0-0.886,0.396-0.886,0.886v7.938c0,0.489,0.397,0.886,0.886,0.886h7.938
			c0.49,0,0.886-0.397,0.886-0.886v-7.938C84.085,53.292,83.689,52.896,83.199,52.896z M79.231,61.626
			c-2.141,0-3.875-1.735-3.875-3.875s1.734-3.875,3.875-3.875c2.14,0,3.875,1.735,3.875,3.875S81.371,61.626,79.231,61.626z"/>
	</g>
	<polygon fill="#FFFFFF" points="29.682,50.609 24.755,50.609 24.755,45.682 18.665,45.682 18.665,50.609 13.738,50.609 
		13.738,56.699 18.665,56.699 18.665,61.626 24.755,61.626 24.755,56.699 29.682,56.699 	"/>
	<g>
		<path fill="#FFFFFF" d="M58.53,53.3H35.158c-0.489,0-0.886,0.397-0.886,0.886v6.998c0,0.489,0.397,0.886,0.886,0.886H58.53
			c0.49,0,0.886-0.397,0.886-0.886v-6.998C59.416,53.696,59.02,53.3,58.53,53.3z M42.916,59.301h-3.547
			c-0.855,0-1.55-0.694-1.55-1.55c0-0.856,0.695-1.55,1.55-1.55h3.547c0.855,0,1.55,0.694,1.55,1.55
			C44.466,58.607,43.771,59.301,42.916,59.301z M54.32,59.301h-3.547c-0.855,0-1.55-0.694-1.55-1.55c0-0.856,0.695-1.55,1.55-1.55
			h3.547c0.855,0,1.55,0.694,1.55,1.55C55.87,58.607,55.175,59.301,54.32,59.301z"/>
	</g>
	<path fill="#FFFFFF" d="M59.416,45.815c0,0.489-0.397,0.886-0.886,0.886H35.158c-0.489,0-0.886-0.397-0.886-0.886v-2.431
		c0-0.489,0.397-0.886,0.886-0.886H58.53c0.489,0,0.886,0.397,0.886,0.886V45.815z"/>
	<path fill="#FFFFFF" d="M59.416,51.215c0,0.489-0.397,0.886-0.886,0.886H35.158c-0.489,0-0.886-0.397-0.886-0.886v-2.431
		c0-0.489,0.397-0.886,0.886-0.886H58.53c0.489,0,0.886,0.397,0.886,0.886V51.215z"/>
	<path fill="#FFFFFF" d="M6.154,31.177v37.645h87.692V31.177H6.154z M91.238,66.215H59.417v-2.037c0-0.489-0.397-0.886-0.886-0.886
		H35.159c-0.49,0-0.886,0.397-0.886,0.886v2.037H8.762V36.764h25.511v3.65c0,0.489,0.396,0.886,0.886,0.886h23.372
		c0.489,0,0.886-0.397,0.886-0.886v-3.65h31.821V66.215z"/>
</g>
</svg>
