<?xml version="1.0" encoding="utf-8"?>
<!-- Generator: Adobe Illustrator 17.0.0, SVG Export Plug-In . SVG Version: 6.00 Build 0)  -->
<!DOCTYPE svg PUBLIC "-//W3C//DTD SVG 1.1//EN" "http://www.w3.org/Graphics/SVG/1.1/DTD/svg11.dtd">
<svg version="1.1" id="Layer_1" xmlns="http://www.w3.org/2000/svg" xmlns:xlink="http://www.w3.org/1999/xlink" x="0px" y="0px"
	 width="100px" height="100px" viewBox="0 0 100 100" enable-background="new 0 0 100 100" xml:space="preserve">
<g>
	<path fill="#FFFFFF" d="M94.83,35.165c0.071-0.589,0.111-1.187,0.111-1.795c0-5.055-2.503-10.855-6.337-14.606v-0.979
		c-2.002-2.024-4.367-3.472-6.928-3.929v-0.006l-12.322-1.977l-1.147-3.121C63.887,6.394,57.336,4.89,50,4.89
		c-7.336,0-13.887,1.504-18.206,3.862l-1.147,3.121l-12.322,1.978v0.006c-2.162,0.387-4.183,1.481-5.965,3.029v1.008
		c-4.372,3.675-7.301,10.01-7.301,15.476c0,0.608,0.04,1.206,0.111,1.795c-0.93,3.672-1.481,8.015-1.481,12.604
		c0,12.603,3.156,27.555,8.954,27.555c5.41,0,8.548-12.213,9.847-22.693c0.338-2.721,11.991-1.264,12.982,4.145
		C38.399,72.75,41.804,95.11,50,95.11c8.196,0,11.601-22.359,14.528-38.334c0.991-5.409,12.645-6.866,12.982-4.145
		c1.299,10.479,4.437,22.693,9.848,22.693c5.798,0,8.954-14.951,8.954-27.555C96.312,43.18,95.761,38.837,94.83,35.165z
		 M27.458,36.2h-4.578v4.578h-5.659V36.2h-4.578v-5.659h4.578v-4.578h5.659v4.578h4.578V36.2z M50,32.586
		c1.989,0,3.601,1.612,3.601,3.601c0,1.989-1.612,3.601-3.601,3.601c-1.989,0-3.601-1.612-3.601-3.601
		C46.399,34.198,48.011,32.586,50,32.586z M50,66.655c-5.832,0-10.561-4.728-10.561-10.561c0-5.832,4.728-10.56,10.561-10.56
		s10.561,4.728,10.561,10.56C60.56,61.926,55.832,66.655,50,66.655z M82.936,21.329c1.691,0,3.062,1.371,3.062,3.062
		c0,1.691-1.371,3.062-3.062,3.062c-1.691,0-3.062-1.371-3.062-3.062C79.874,22.7,81.245,21.329,82.936,21.329z M77.402,26.863
		c1.691,0,3.062,1.371,3.062,3.062c0,1.691-1.371,3.062-3.062,3.062s-3.062-1.371-3.062-3.062
		C74.34,28.234,75.711,26.863,77.402,26.863z M64.607,35.458c0-2.257,1.829-4.087,4.086-4.087s4.087,1.83,4.087,4.087
		s-1.83,4.087-4.087,4.087S64.607,37.715,64.607,35.458z M75.572,46.909c-2.257,0-4.086-1.83-4.086-4.087
		c0-2.257,1.829-4.087,4.086-4.087c2.257,0,4.086,1.83,4.086,4.087C79.659,45.08,77.829,46.909,75.572,46.909z M82.936,38.52
		c-1.691,0-3.062-1.371-3.062-3.062c0-1.691,1.371-3.062,3.062-3.062c1.691,0,3.062,1.371,3.062,3.062
		C85.998,37.149,84.627,38.52,82.936,38.52z M88.47,32.987c-1.691,0-3.062-1.371-3.062-3.062c0-1.691,1.371-3.062,3.062-3.062
		c1.691,0,3.062,1.371,3.062,3.062C91.532,31.616,90.161,32.987,88.47,32.987z"/>
	<circle fill="#FFFFFF" cx="50" cy="56.094" r="4.977"/>
</g>
</svg>
